<svg id="svg" version="1.1" xmlns="http://www.w3.org/2000/svg" style="display: block;" viewBox="0 0 898 194"><path d="M0 0 C296.34 0 592.68 0 898 0 C898 64.02 898 128.04 898 194 C601.66 194 305.32 194 0 194 C0 129.98 0 65.96 0 0 Z " transform="translate(0,0)" style="fill: #FEFEFE;"/><path d="M0 0 C5.60226669 3.41601627 8.47377513 8.6640293 10.25 14.8125 C10.93921225 18.00594654 11.07916344 20.99789592 11.046875 24.26171875 C11.03672363 25.59722778 11.03672363 25.59722778 11.02636719 26.9597168 C11.01766602 27.63301025 11.00896484 28.30630371 11 29 C12.23492187 28.79503906 13.46984375 28.59007813 14.7421875 28.37890625 C16.45304947 28.10629638 18.16399154 27.83418894 19.875 27.5625 C20.67808594 27.42779297 21.48117188 27.29308594 22.30859375 27.15429688 C38.81986535 24.57047193 55.70573125 24.75967637 72.375 24.75 C73.42870789 24.74932526 74.48241577 24.74865051 75.5680542 24.74795532 C100.04657339 24.77275978 123.23317409 26.86427862 147 33 C146.95359375 32.09378906 146.9071875 31.18757813 146.859375 30.25390625 C146.57390222 20.61919993 147.59449302 14.08734409 153.625 6.5 C156.26120139 3.72505117 157.01557619 3.11186634 160.75 2.6875 C165.06251783 3.10216518 166.75631942 4.10139182 170 7 C176.32242827 17.07849452 177.87913588 28.59495201 175.28125 40.21484375 C173.318351 45.98481703 170.73793992 52.13103004 165 55 C157.95306859 55.69314079 157.95306859 55.69314079 154.25 53 C150.39106366 47.85475155 147.69222967 43.56576696 148 37 C147.40316406 36.96261719 146.80632812 36.92523438 146.19140625 36.88671875 C137.34505016 36.2163411 128.71022611 34.62359432 120 33 C119.73316406 34.18851563 119.46632812 35.37703125 119.19140625 36.6015625 C115.8872985 49.74283446 106.87769201 61.65661455 95.41796875 68.81640625 C91.10389867 70.92814007 86.67293262 71.93528117 82 73 C81.67 78.61 81.34 84.22 81 90 C83.5678125 89.0409375 83.5678125 89.0409375 86.1875 88.0625 C96.48513353 84.21639591 109.82027359 82.72746899 120.4375 86.375 C131.68706967 91.95137877 139.02441647 101.77167781 144 113 C144.8359375 116.296875 144.8359375 116.296875 145 119 C143 121 143 121 139.875 121.125 C138.92625 121.08375 137.9775 121.0425 137 121 C136.443125 119.92621094 135.88625 118.85242188 135.3125 117.74609375 C128.02647209 103.90549627 128.02647209 103.90549627 115.21875 95.44140625 C102.19250195 92.84991676 90.91409019 96.22836181 79.4375 102.375 C76 104 76 104 73.125 103.875 C71 103 71 103 69 101 C68.77294922 98.01904297 68.77294922 98.01904297 68.8046875 94.2421875 C68.8075174 93.57913605 68.81034729 92.91608459 68.81326294 92.23294067 C68.82446565 90.11344417 68.84956949 87.99436896 68.875 85.875 C68.88502972 84.43880818 68.89415559 83.00260975 68.90234375 81.56640625 C68.924405 78.04413372 68.95893506 74.52210797 69 71 C67.83658081 71.03649658 67.83658081 71.03649658 66.6496582 71.07373047 C60.74160913 70.90933069 55.93470125 65.85717224 51.85546875 61.94140625 C44.83332786 53.949739 38 41.79214189 38 31 C28.76 31.99 19.52 32.98 10 34 C9.67 36.64 9.34 39.28 9 42 C7.14591617 46.28024557 4.31530625 50.96926765 0 53 C-3.86392747 53.49177259 -6.15678944 53.44168172 -9.625 51.625 C-17.29335456 43.14945022 -18.33464177 33.55997074 -18.20703125 22.5390625 C-17.71682753 14.15935358 -15.38565465 8.67252272 -9.71875 2.49609375 C-6.75306953 -0.08539629 -3.79307195 -0.45155618 0 0 Z " transform="translate(41,29)" style="fill: #17767A;"/><path d="M0 0 C1.20893417 -0.01606293 2.41786835 -0.03212585 3.66343689 -0.04867554 C9.23200371 -0.09308417 14.80043848 -0.13468476 20.36914062 -0.15722656 C23.3014288 -0.17050033 26.23301016 -0.19822172 29.16503906 -0.23925781 C32.71300741 -0.28891393 36.26034051 -0.31338919 39.80864143 -0.32045364 C41.80376403 -0.33033807 43.79871937 -0.36451349 45.79356384 -0.39926147 C54.31864684 -0.37962458 61.52614547 0.74362853 67.99632263 6.70669556 C72.3767612 11.7042589 73.64498732 15.47341431 73.66625977 22.06787109 C73.68301758 23.26154297 73.69977539 24.45521484 73.71704102 25.68505859 C73.05210576 32.10561625 70.09531444 36.00265998 65.35375977 40.19287109 C63.3845713 41.57130302 61.38711186 42.91097521 59.35375977 44.19287109 C58.36375977 44.85287109 57.37375977 45.51287109 56.35375977 46.19287109 C57.42303711 46.52158203 57.42303711 46.52158203 58.51391602 46.85693359 C67.17397224 49.72419313 72.71480588 52.83652038 77.29125977 60.88037109 C80.57751166 68.1384175 80.38244713 74.95886363 77.85375977 82.44287109 C74.93834156 88.92272286 70.19729014 92.60705608 64.10375977 96.00537109 C54.77600303 98.95916073 45.38205535 99.49457494 35.65844727 99.45849609 C34.5037796 99.46040955 33.34911194 99.462323 32.15945435 99.46429443 C29.74440286 99.46564466 27.32934383 99.4620303 24.91430664 99.45361328 C21.20385776 99.44279851 17.49388228 99.45359828 13.78344727 99.46630859 C11.42927953 99.46498871 9.07511209 99.46242988 6.72094727 99.45849609 C5.05393265 99.46456879 5.05393265 99.46456879 3.35324097 99.47076416 C1.81991623 99.46130768 1.81991623 99.46130768 0.25561523 99.45166016 C-0.64528839 99.45006897 -1.54619202 99.44847778 -2.47439575 99.44683838 C-4.64624023 99.19287109 -4.64624023 99.19287109 -6.64624023 97.19287109 C-6.27124023 95.06787109 -6.27124023 95.06787109 -5.64624023 93.19287109 C-3.59545898 92.96500651 -1.54467773 92.73714193 0.50610352 92.50927734 C2.36516205 92.37400495 2.36516205 92.37400495 3.35375977 91.19287109 C3.45417434 88.58136822 3.48993033 85.99628745 3.4831543 83.38427734 C3.48490662 82.56643768 3.48665894 81.74859802 3.48846436 80.90597534 C3.49288361 78.18908599 3.48994463 75.47226117 3.48657227 72.75537109 C3.48724528 70.87589505 3.48821529 68.9964191 3.48947144 67.11694336 C3.49094851 63.17251763 3.48879355 59.22811451 3.48413086 55.28369141 C3.47843357 50.21574606 3.48171252 45.14785367 3.48770332 40.07991028 C3.49130868 36.19730222 3.49017047 32.31470682 3.48757553 28.43209839 C3.48690619 26.56289667 3.48773492 24.69369381 3.49005508 22.82449341 C3.4925812 20.21678605 3.48874161 17.60916568 3.4831543 15.00146484 C3.48517853 14.22116913 3.48720276 13.44087341 3.48928833 12.63693237 C3.79848034 9.12209917 3.79848034 9.12209917 2.35375977 6.19287109 C1.00628892 5.96212027 -0.35001588 5.78134047 -1.70874023 5.63037109 C-3.00811523 5.48599609 -4.30749023 5.34162109 -5.64624023 5.19287109 C-6.20874023 3.25537109 -6.20874023 3.25537109 -6.64624023 1.19287109 C-4.88676892 -0.56660022 -2.38904229 0.02873985 0 0 Z " transform="translate(459.646240234375,41.80712890625)" style="fill: #363636;"/><path d="M0 0 C0.66209473 -0.00095673 1.32418945 -0.00191345 2.00634766 -0.00289917 C3.40852961 -0.00358076 4.8107147 -0.00172792 6.21289062 0.00244141 C8.36595713 0.00779004 10.51881502 0.0024958 12.671875 -0.00390625 C14.03125046 -0.00324546 15.3906258 -0.00196429 16.75 0 C18.61785156 0.00169189 18.61785156 0.00169189 20.5234375 0.00341797 C23.375 0.1328125 23.375 0.1328125 24.375 1.1328125 C24.50025151 3.99294147 24.56109721 6.83009404 24.58032227 9.69165039 C24.59022186 10.58912491 24.60012146 11.48659943 24.61032104 12.41127014 C24.6420354 15.39264238 24.66673256 18.37403059 24.69140625 21.35546875 C24.71196721 23.41670661 24.73296344 25.47794016 24.75437927 27.53916931 C24.8096886 32.97580494 24.85905866 38.41247917 24.90722656 43.84918213 C24.95737706 49.39232842 25.01309672 54.93541836 25.06835938 60.47851562 C25.17604926 71.36323316 25.27747002 82.24799953 25.375 93.1328125 C27.355 93.7928125 29.335 94.4528125 31.375 95.1328125 C31.045 96.7828125 30.715 98.4328125 30.375 100.1328125 C25.91672074 100.1906429 21.4585372 100.22635105 17 100.2578125 C15.72898437 100.27457031 14.45796875 100.29132813 13.1484375 100.30859375 C11.93671875 100.31503906 10.725 100.32148438 9.4765625 100.328125 C8.35588379 100.33859863 7.23520508 100.34907227 6.08056641 100.35986328 C3.375 100.1328125 3.375 100.1328125 1.375 98.1328125 C1.25 95.0078125 1.25 95.0078125 1.375 92.1328125 C0.715 92.1328125 0.055 92.1328125 -0.625 92.1328125 C-0.8725 92.7309375 -1.12 93.3290625 -1.375 93.9453125 C-3.42672452 97.53583041 -5.76855212 98.78658889 -9.5625 100.3203125 C-18.07216381 102.47975407 -27.73372817 102.09442265 -35.625 98.1328125 C-40.93687041 94.62497355 -43.37457385 90.91390724 -45.625 85.1328125 C-45.92535156 84.38773437 -46.22570312 83.64265625 -46.53515625 82.875 C-50.89752278 69.92993095 -50.31955115 53.50682144 -44.625 41.1328125 C-41.3466335 34.58693501 -36.58758411 31.2071054 -29.98046875 28.203125 C-22.42455761 25.79297407 -14.72618193 25.81360174 -7.5 29.1953125 C-6.83742188 29.57816406 -6.17484375 29.96101563 -5.4921875 30.35546875 C-3.12967028 31.33902718 -1.98417005 31.01876692 0.375 30.1328125 C1.6255313 29.10566589 1.6255313 29.10566589 1.48852539 26.90795898 C1.48328857 25.94962158 1.47805176 24.99128418 1.47265625 24.00390625 C1.46943359 22.96943359 1.46621094 21.93496094 1.46289062 20.86914062 C1.45451172 19.78052734 1.44613281 18.69191406 1.4375 17.5703125 C1.43298828 16.47783203 1.42847656 15.38535156 1.42382812 14.25976562 C1.41199826 11.55072755 1.39551543 8.84179651 1.375 6.1328125 C-1.265 5.8028125 -3.905 5.4728125 -6.625 5.1328125 C-7.1875 3.1953125 -7.1875 3.1953125 -7.625 1.1328125 C-5.74180732 -0.75038018 -2.50569863 0.00226965 0 0 Z " transform="translate(679.625,40.8671875)" style="fill: #363636;"/><path d="M0 0 C0.66209473 -0.00095673 1.32418945 -0.00191345 2.00634766 -0.00289917 C3.40852961 -0.00358076 4.8107147 -0.00172792 6.21289062 0.00244141 C8.36595713 0.00779004 10.51881502 0.0024958 12.671875 -0.00390625 C14.03125046 -0.00324546 15.3906258 -0.00196429 16.75 0 C18.61785156 0.00169189 18.61785156 0.00169189 20.5234375 0.00341797 C23.375 0.1328125 23.375 0.1328125 24.375 1.1328125 C24.50025151 3.99294147 24.56109721 6.83009404 24.58032227 9.69165039 C24.59022186 10.58912491 24.60012146 11.48659943 24.61032104 12.41127014 C24.6420354 15.39264238 24.66673256 18.37403059 24.69140625 21.35546875 C24.71196721 23.41670661 24.73296344 25.47794016 24.75437927 27.53916931 C24.8096886 32.97580494 24.85905866 38.41247917 24.90722656 43.84918213 C24.95737706 49.39232842 25.01309672 54.93541836 25.06835938 60.47851562 C25.17604926 71.36323316 25.27747002 82.24799953 25.375 93.1328125 C27.355 93.7928125 29.335 94.4528125 31.375 95.1328125 C31.375 96.4528125 31.375 97.7728125 31.375 99.1328125 C27.2632744 99.15746996 23.15157722 99.17565209 19.03979492 99.18774414 C17.64004772 99.1927833 16.2403058 99.19961466 14.84057617 99.20825195 C12.83254223 99.2203357 10.82447043 99.22551057 8.81640625 99.23046875 C7.60670166 99.23570557 6.39699707 99.24094238 5.15063477 99.24633789 C2.375 99.1328125 2.375 99.1328125 1.375 98.1328125 C1.33419217 96.13322886 1.33245644 94.13235996 1.375 92.1328125 C0.715 92.1328125 0.055 92.1328125 -0.625 92.1328125 C-0.9034375 92.9990625 -0.9034375 92.9990625 -1.1875 93.8828125 C-3.53277791 97.55368228 -7.32246303 99.3703496 -11.40625 100.72265625 C-19.95066938 102.3021704 -28.93967421 102.2274606 -36.5390625 97.74609375 C-44.15158757 91.85850413 -47.40429708 83.42728739 -48.625 74.1328125 C-49.50866919 60.13052093 -49.73268551 46.24043762 -40.40625 34.8203125 C-33.34943697 28.13491068 -25.60577473 26.80873032 -16.21875 26.828125 C-12.02347933 27.18381099 -9.10514248 28.26782745 -5.4921875 30.35546875 C-3.12967028 31.33902718 -1.98417005 31.01876692 0.375 30.1328125 C1.6255313 29.10566589 1.6255313 29.10566589 1.48852539 26.90795898 C1.48328857 25.94962158 1.47805176 24.99128418 1.47265625 24.00390625 C1.46943359 22.96943359 1.46621094 21.93496094 1.46289062 20.86914062 C1.45451172 19.78052734 1.44613281 18.69191406 1.4375 17.5703125 C1.43298828 16.47783203 1.42847656 15.38535156 1.42382812 14.25976562 C1.41199826 11.55072755 1.39551543 8.84179651 1.375 6.1328125 C-1.265 5.8028125 -3.905 5.4728125 -6.625 5.1328125 C-7.1875 3.1953125 -7.1875 3.1953125 -7.625 1.1328125 C-5.74180732 -0.75038018 -2.50569863 0.00226965 0 0 Z " transform="translate(766.625,40.8671875)" style="fill: #353535;"/><path d="M0 0 C0.70548981 0.00202423 1.41097961 0.00404846 2.1378479 0.00613403 C3.24756454 0.00350555 3.24756454 0.00350555 4.37969971 0.00082397 C6.83686638 -0.00359453 9.29396168 -0.00065657 11.75112915 0.00271606 C13.45124322 0.00204302 15.1513572 0.001073 16.85147095 -0.00018311 C20.41926996 -0.00166008 23.98704398 0.00049445 27.55484009 0.00515747 C32.13851409 0.01085476 36.72212954 0.00757575 41.30580139 0.00158501 C44.81782476 -0.00202063 48.32983414 -0.00088201 51.84185791 0.0017128 C53.53243008 0.00238206 55.22300351 0.00155367 56.91357422 -0.00076675 C59.27222072 -0.00329332 61.6307711 0.00054735 63.9894104 0.00613403 C64.69490021 0.0041098 65.40039001 0.00208557 66.1272583 0 C70.94936644 0.02126585 70.94936644 0.02126585 72.06362915 1.13552856 C72.15076747 2.84325214 72.17062922 4.55451505 72.1612854 6.26443481 C72.15645142 7.8161438 72.15645142 7.8161438 72.15151978 9.39920044 C72.13895142 11.03212036 72.13895142 11.03212036 72.12612915 12.69802856 C72.12161743 13.79050903 72.11710571 14.8829895 72.11245728 16.00857544 C72.10062741 18.71761352 72.08414458 21.42654456 72.06362915 24.13552856 C70.74362915 24.79552856 69.42362915 25.45552856 68.06362915 26.13552856 C65.72144122 23.79334064 65.55649762 22.49926747 64.81362915 19.32302856 C63.29533739 14.03571103 61.71147379 12.05182324 57.06362915 9.13552856 C52.95515767 7.53466838 49.40604651 6.857459 45.00894165 6.72146606 C43.9003479 6.68279419 42.79175415 6.64412231 41.64956665 6.60427856 C39.93640259 6.55787231 39.93640259 6.55787231 38.18862915 6.51052856 C37.02331665 6.47185669 35.85800415 6.43318481 34.65737915 6.39334106 C31.79295051 6.29942537 28.92852223 6.21374873 26.06362915 6.13552856 C26.18170543 11.5108469 26.30594121 16.8859737 26.4359436 22.26101685 C26.4793148 24.09040431 26.52098826 25.91983284 26.5609436 27.7492981 C26.61859333 30.37556343 26.6823028 33.00162166 26.7472229 35.62771606 C26.76393539 36.44859711 26.78064789 37.26947815 26.79786682 38.11523438 C26.80676785 42.25889817 26.80676785 42.25889817 28.06362915 46.13552856 C30.12546548 46.217036 32.18824264 46.27494797 34.25112915 46.32302856 C35.97396118 46.3752356 35.97396118 46.3752356 37.7315979 46.42849731 C41.39845064 46.10608939 43.17747425 45.38031571 46.06362915 43.13552856 C48.19413883 38.95341698 49.64659425 34.60463863 51.06362915 30.13552856 C52.71362915 30.46552856 54.36362915 30.79552856 56.06362915 31.13552856 C56.06362915 43.34552856 56.06362915 55.55552856 56.06362915 68.13552856 C53.58862915 68.63052856 53.58862915 68.63052856 51.06362915 69.13552856 C50.8212854 68.46005981 50.57894165 67.78459106 50.32925415 67.08865356 C47.44394625 59.22982436 47.44394625 59.22982436 41.06362915 54.13552856 C38.8778677 54.03888892 36.68902067 54.00572529 34.50112915 54.01052856 C33.32421509 54.00795044 32.14730103 54.00537231 30.9347229 54.00271606 C28.16690214 53.80769668 28.16690214 53.80769668 27.06362915 55.13552856 C26.97500923 57.94716236 26.9484056 60.73411112 26.9659729 63.54568481 C26.96809532 64.80873695 26.96809532 64.80873695 26.97026062 66.0973053 C26.97587652 68.79758191 26.98843167 71.49777684 27.00112915 74.19802856 C27.0061421 76.02419925 27.01070537 77.85037122 27.01480103 79.67654419 C27.02585111 84.16290399 27.04312636 88.64920241 27.06362915 93.13552856 C30.36362915 93.46552856 33.66362915 93.79552856 37.06362915 94.13552856 C37.06362915 95.78552856 37.06362915 97.43552856 37.06362915 99.13552856 C22.87362915 99.13552856 8.68362915 99.13552856 -5.93637085 99.13552856 C-5.93637085 97.48552856 -5.93637085 95.83552856 -5.93637085 94.13552856 C-4.23480835 93.91896606 -4.23480835 93.91896606 -2.49887085 93.69802856 C0.87140116 93.52381379 0.87140116 93.52381379 2.06362915 92.13552856 C2.15874181 89.48814767 2.1891855 86.86693856 2.17715454 84.2192688 C2.17730057 83.39006927 2.17744659 82.56086975 2.17759705 81.70654297 C2.17689766 78.95237658 2.16910408 76.19827696 2.1612854 73.44412231 C2.15942131 71.5398309 2.15799737 69.63553901 2.15699768 67.73124695 C2.15317178 62.70884894 2.14334088 57.68647965 2.1322937 52.66409302 C2.12208113 47.54324736 2.11750039 42.42239708 2.11245728 37.30154419 C2.10171868 27.246193 2.08464139 17.19086317 2.06362915 7.13552856 C-0.24637085 6.80552856 -2.55637085 6.47552856 -4.93637085 6.13552856 C-5.31855852 4.47938199 -5.65032187 2.81095832 -5.93637085 1.13552856 C-4.26574996 -0.53509232 -2.23083259 0.00983814 0 0 Z " transform="translate(268.9363708496094,40.864471435546875)" style="fill: #343434;"/><path d="M0 0 C9.57 0 19.14 0 29 0 C29.03738281 4.21265625 29.07476563 8.4253125 29.11328125 12.765625 C29.15139418 16.12705124 29.19246691 19.48841233 29.2355423 22.84977722 C29.28018402 26.39673711 29.31962295 29.94357937 29.34643555 33.49072266 C29.37744839 37.56181932 29.43223715 41.63229543 29.48828125 45.703125 C29.49467117 46.97303284 29.5010611 48.24294067 29.50764465 49.55133057 C29.53733589 51.32271393 29.53733589 51.32271393 29.56762695 53.12988281 C29.57873001 54.16912903 29.58983307 55.20837524 29.60127258 56.27911377 C30.05820819 59.39720837 30.76518004 60.79630555 33 63 C36.62770716 63.47025834 39.17999425 63.2928592 42.625 62.0625 C48.66947796 56.81334809 51.5342848 48.71663269 52.17442322 40.85896301 C52.2290875 38.61157791 52.22552365 36.37282741 52.1953125 34.125 C52.1924826 33.31506592 52.18965271 32.50513184 52.18673706 31.6706543 C52.17564715 29.11361166 52.15056452 26.55693465 52.125 24 C52.1149557 22.25391135 52.1058324 20.50781715 52.09765625 18.76171875 C52.07574466 14.50767415 52.04129382 10.25389881 52 6 C51.34 5.67 50.68 5.34 50 5 C50.33 3.35 50.66 1.7 51 0 C58.92 0 66.84 0 75 0 C75.33 21.12 75.66 42.24 76 64 C78.31 64.66 80.62 65.32 83 66 C82.505 67.98 82.505 67.98 82 70 C77.9170404 70.14518182 73.83474359 70.23403347 69.75 70.3125 C68.59113281 70.35439453 67.43226563 70.39628906 66.23828125 70.43945312 C57.69373042 70.56292929 57.69373042 70.56292929 54.203125 67.73046875 C53 65 53 65 53 61 C50.26940926 62.1124629 48.83977987 63.17395328 46.8125 65.375 C39.96713435 71.76400794 32.83339381 72.79618215 23.60546875 72.5 C18.09218535 71.73542765 14.79541521 70.01686025 11 66 C6.95227008 58.99129064 6.39997738 52.01821268 6.390625 44.0859375 C6.37408875 42.99028473 6.35755249 41.89463196 6.34051514 40.76577759 C6.29233542 37.30212633 6.27073045 33.83891315 6.25 30.375 C6.2218153 28.01169706 6.19188442 25.64841427 6.16015625 23.28515625 C6.08658474 17.52351625 6.03476695 11.76199794 6 6 C3.69 5.34 1.38 4.68 -1 4 C-0.67 2.68 -0.34 1.36 0 0 Z " transform="translate(543,70)" style="fill: #343434;"/><path d="M0 0 C0.83648071 0.00718552 1.67296143 0.01437103 2.53479004 0.02177429 C3.8218988 0.02246162 3.8218988 0.02246162 5.13500977 0.02316284 C6.95073833 0.0261863 8.76646428 0.03407541 10.58215332 0.0464325 C13.36723991 0.06466905 16.15199378 0.06694233 18.93713379 0.06669617 C20.69885542 0.07161209 22.4605748 0.07744073 24.22229004 0.08427429 C25.05877075 0.08538712 25.89525146 0.08649994 26.75708008 0.08764648 C32.64640947 0.13617776 32.64640947 0.13617776 34.87854004 1.25224304 C34.54854004 2.90224304 34.21854004 4.55224304 33.87854004 6.25224304 C31.23854004 6.58224304 28.59854004 6.91224304 25.87854004 7.25224304 C27.30814268 10.95027813 28.92517405 14.50599031 30.66369629 18.06864929 C31.19414551 19.16241882 31.72459473 20.25618835 32.27111816 21.38310242 C33.38668453 23.67555868 34.50387921 25.96722326 35.62268066 28.25810242 C36.15184082 29.35058289 36.68100098 30.44306335 37.22619629 31.56864929 C37.71096436 32.56324158 38.19573242 33.55783386 38.69519043 34.58256531 C39.69114516 36.8294737 40.3911278 38.85363366 40.87854004 41.25224304 C42.83299244 40.99759689 42.83299244 40.99759689 44.87854004 40.25224304 C46.23626545 37.72718634 47.30411687 35.3743884 48.33166504 32.71708679 C48.7892923 31.58721092 48.7892923 31.58721092 49.25616455 30.43450928 C50.22816157 28.02512947 51.17847722 25.60784486 52.12854004 23.18974304 C52.78338105 21.55571414 53.43961417 19.92224239 54.09729004 18.28935242 C55.70727049 14.2832711 57.2978573 10.26996961 58.87854004 6.25224304 C56.23854004 6.25224304 53.59854004 6.25224304 50.87854004 6.25224304 C50.21854004 4.93224304 49.55854004 3.61224304 48.87854004 2.25224304 C51.44842684 -0.31764376 52.46764056 -0.00482471 56.03479004 -0.01338196 C57.56812988 -0.01724915 57.56812988 -0.01724915 59.13244629 -0.02119446 C60.20365723 -0.01346008 61.27486816 -0.00572571 62.37854004 0.00224304 C63.98535645 -0.00935852 63.98535645 -0.00935852 65.62463379 -0.02119446 C66.64686035 -0.01861633 67.66908691 -0.01603821 68.72229004 -0.01338196 C69.66266113 -0.0111261 70.60303223 -0.00887024 71.57189941 -0.00654602 C73.87854004 0.25224304 73.87854004 0.25224304 75.87854004 2.25224304 C75.50354004 4.37724304 75.50354004 4.37724304 74.87854004 6.25224304 C73.66166504 6.21099304 72.44479004 6.16974304 71.19104004 6.12724304 C68.93602408 6.30842035 68.93602408 6.30842035 66.87854004 7.25224304 C65.41095892 9.21621033 65.41095892 9.21621033 64.36853027 11.7051239 C63.73925125 13.06623795 63.73925125 13.06623795 63.09725952 14.45484924 C62.69508209 15.3779892 62.29290466 16.30112915 61.87854004 17.25224304 C61.52494415 18.0602536 61.17134827 18.86826416 60.80703735 19.70075989 C59.75429365 22.16765954 58.73593733 24.6463531 57.72619629 27.13114929 C57.34923615 28.04946533 56.972276 28.96778137 56.58389282 29.91392517 C55.78103711 31.87028036 54.97973948 33.82727559 54.17990112 35.78486633 C52.07648854 40.92917257 49.95669 46.06672984 47.83947754 51.20536804 C46.9927816 53.26200197 46.14610168 55.31864251 45.29943848 57.37528992 C38.923283 72.85636591 38.923283 72.85636591 35.93734741 79.97975159 C35.36460256 81.35029906 34.79526342 82.72227565 34.22964478 84.09577942 C25.29777838 105.77129902 25.29777838 105.77129902 15.59729004 110.32255554 C10.76278259 111.97573481 5.91212667 111.9392596 0.87854004 111.25224304 C-2.34941064 109.62006497 -4.48206016 107.53104265 -6.12145996 104.25224304 C-6.76837756 99.54822794 -6.75979673 96.26122697 -4.18395996 92.18974304 C-0.6552495 89.95729357 1.52668576 89.4124761 5.65197754 89.61943054 C9.64308125 90.75374423 11.85893457 93.75159357 13.87854004 97.25224304 C13.87854004 97.91224304 13.87854004 98.57224304 13.87854004 99.25224304 C16.72388208 99.54853041 16.72388208 99.54853041 19.87854004 98.25224304 C22.09694538 95.18111734 23.41509646 91.73120772 24.87854004 88.25224304 C25.43283691 87.06372742 25.98713379 85.87521179 26.55822754 84.65068054 C30.30299886 77.23612138 30.30299886 77.23612138 29.87854004 69.25224304 C28.79806278 66.79952232 27.6809382 64.41579817 26.48400879 62.02177429 C26.14017654 61.32153641 25.7963443 60.62129852 25.4420929 59.89984131 C24.70416455 58.39785493 23.96374453 56.8970906 23.22106934 55.39744568 C21.27559165 51.46834974 19.34820728 47.53041768 17.42150879 43.59208679 C17.03526337 42.80328125 16.64901794 42.01447571 16.25106812 41.20176697 C12.14973142 32.80207527 8.23783348 24.32013467 4.37145996 15.81010437 C3.6943396 14.32353333 3.6943396 14.32353333 3.00354004 12.80693054 C2.41959473 11.51504822 2.41959473 11.51504822 1.82385254 10.19706726 C1.03034133 8.29509705 1.03034133 8.29509705 -0.12145996 7.25224304 C-2.4496396 6.88463573 -4.78329846 6.54982723 -7.12145996 6.25224304 C-7.74645996 4.37724304 -7.74645996 4.37724304 -8.12145996 2.25224304 C-5.48605443 -0.38316249 -3.58610879 0.01425095 0 0 Z " transform="translate(807.1214599609375,68.74775695800781)" style="fill: #373737;"/><path d="M0 0 C3.6875 0.3125 3.6875 0.3125 5.90234375 1.91015625 C9.26242151 6.43192391 7.90427282 11.8931794 7.6875 17.3125 C12.6375 17.3125 17.5875 17.3125 22.6875 17.3125 C23.1825 19.2925 23.1825 19.2925 23.6875 21.3125 C22.6875 22.3125 22.6875 22.3125 19.30859375 22.41015625 C17.91402923 22.40348369 16.51948257 22.39152532 15.125 22.375 C14.05862305 22.36823242 14.05862305 22.36823242 12.97070312 22.36132812 C11.20959987 22.34950864 9.44853964 22.33157263 7.6875 22.3125 C7.77179521 29.84038798 7.86663596 37.36807992 7.97502708 44.89565849 C8.02502173 48.39084766 8.07135113 51.88600614 8.109375 55.38134766 C8.15322544 59.39765707 8.21288959 63.41359487 8.2734375 67.4296875 C8.28498871 68.68804413 8.29653992 69.94640076 8.30844116 71.2428894 C8.32831085 72.40394196 8.34818054 73.56499451 8.36865234 74.76123047 C8.38197601 75.78715302 8.39529968 76.81307556 8.4090271 77.87008667 C8.4511954 80.49116403 8.4511954 80.49116403 10.6875 82.3125 C14.74516511 82.16221611 16.9883948 81.90405055 20.125 79.25 C20.640625 78.610625 21.15625 77.97125 21.6875 77.3125 C22.6775 77.6425 23.6675 77.9725 24.6875 78.3125 C24.40099017 81.75061794 23.95316773 83.05421193 21.4375 85.5 C14.50173045 90.07130266 7.8082123 90.04174357 -0.3125 89.3125 C-6.07403905 87.81125391 -10.12781171 85.48761848 -13.3125 80.3125 C-14.33862598 77.23412206 -14.43340219 75.14675704 -14.42602539 71.9230957 C-14.42594986 70.82218094 -14.42587433 69.72126617 -14.42579651 68.58699036 C-14.42063522 67.39941635 -14.41547394 66.21184235 -14.41015625 64.98828125 C-14.4087413 63.77174362 -14.40732635 62.55520599 -14.40586853 61.30180359 C-14.40026312 57.4095109 -14.38770967 53.51727536 -14.375 49.625 C-14.3699857 46.98893312 -14.36542267 44.35286534 -14.36132812 41.71679688 C-14.35029193 35.24867836 -14.3335485 28.78059326 -14.3125 22.3125 C-17.2825 22.3125 -20.2525 22.3125 -23.3125 22.3125 C-23.6425 20.9925 -23.9725 19.6725 -24.3125 18.3125 C-23.72082031 18.13074219 -23.12914062 17.94898437 -22.51953125 17.76171875 C-21.72933594 17.51035156 -20.93914062 17.25898437 -20.125 17 C-18.95904297 16.63455078 -18.95904297 16.63455078 -17.76953125 16.26171875 C-12.24513644 14.12749309 -9.73493865 12.01831184 -7.0625 6.6875 C-3.84186586 0.36244018 -3.84186586 0.36244018 0 0 Z " transform="translate(410.3125,52.6875)" style="fill: #353535;"/><path d="M0 0 C4.47915328 -0.02886338 8.95828291 -0.04675187 13.4375 -0.0625 C14.71689453 -0.07087891 15.99628906 -0.07925781 17.31445312 -0.08789062 C19.13686523 -0.09272461 19.13686523 -0.09272461 20.99609375 -0.09765625 C22.12200928 -0.10289307 23.2479248 -0.10812988 24.40795898 -0.11352539 C27 0 27 0 28 1 C28.12363297 2.96287766 28.1779544 4.93015158 28.20532227 6.89672852 C28.22526749 8.15796036 28.24521271 9.4191922 28.26576233 10.71864319 C28.28274795 12.10539627 28.29962671 13.49215066 28.31640625 14.87890625 C28.33696926 16.2899589 28.35796555 17.70100529 28.37937927 19.11204529 C28.43466755 22.8323359 28.48404686 26.55268273 28.53222656 30.27307129 C28.58239242 34.06686425 28.63810408 37.86057523 28.69335938 41.65429688 C28.80102351 49.10279523 28.90244997 56.55136159 29 64 C31.31 64.66 33.62 65.32 36 66 C35.505 67.98 35.505 67.98 35 70 C23.12 70 11.24 70 -1 70 C-0.67 68.35 -0.34 66.7 0 65 C1.98 65 3.96 65 6 65 C5.67 45.53 5.34 26.06 5 6 C3.02 5.34 1.04 4.68 -1 4 C-0.67 2.68 -0.34 1.36 0 0 Z " transform="translate(351,70)" style="fill: #343434;"/><path d="M0 0 C0.77896637 -0.0007251 1.55793274 -0.0014502 2.36050415 -0.00219727 C14.44558579 -0.00095194 26.32830432 0.52013364 38.3125 2.1875 C37.3444328 11.78346617 32.96975367 20.18397148 25.875 26.75 C18.95332455 32.3583319 11.90333717 35.57311019 2.94140625 35.46875 C-3.40502687 34.78978539 -9.47394691 30.90348218 -13.6875 26.1875 C-15.89763825 22.96145468 -17.81212651 19.61643732 -19.6875 16.1875 C-20.285625 15.176875 -20.88375 14.16625 -21.5 13.125 C-23.08799699 9.19679691 -23.41662025 5.39080644 -23.6875 1.1875 C-15.80580988 -0.08887418 -7.96455121 -0.00748265 0 0 Z " transform="translate(112.6875,57.8125)" style="fill: #F8FAFA;"/><path d="M0 0 C4.14619428 0.83337127 6.9094883 3.08158949 9.3515625 6.47265625 C13.02471777 13.76747397 12.80003244 20.79861655 12.7265625 28.84765625 C12.73816406 30.1109375 12.74976563 31.37421875 12.76171875 32.67578125 C12.70581211 50.6031774 12.70581211 50.6031774 6.7890625 56.59765625 C2.17254984 59.11575406 -1.50205089 59.48816397 -6.6484375 58.47265625 C-10.78268644 56.00969943 -12.06455202 52.97412478 -13.4609375 48.53515625 C-14.78999187 42.46379425 -14.92943338 36.47390763 -14.9609375 30.28515625 C-14.96649658 29.35904541 -14.97205566 28.43293457 -14.9777832 27.47875977 C-14.88775723 18.85396376 -13.92862429 8.80719991 -8.31640625 1.8125 C-5.64477098 -0.33356768 -3.32349316 -0.12449567 0 0 Z " transform="translate(755.6484375,75.52734375)" style="fill: #FCFCFC;"/><path d="M0 0 C5.10010723 1.92670718 6.69033283 5.29817756 9 10 C10.7983008 15.42739737 10.26323536 21.3924567 10.29516602 27.05200195 C10.30665017 28.46681752 10.32704561 29.88159098 10.35668945 31.29614258 C10.55866523 40.94923078 10.24338606 48.88297563 3.875 56.5625 C-0.41591171 58.70795586 -4.30271572 58.8807408 -9 58 C-13.73027725 54.74793439 -14.7121437 51.43882716 -16 46 C-16.34957627 41.45177969 -16.32966155 36.90884331 -16.31567383 32.34936523 C-16.31252289 30.20309181 -16.33598723 28.05821214 -16.36132812 25.91210938 C-16.40111444 17.22232583 -16.07205521 8.96255073 -11.375 1.375 C-7.65621353 -0.77798164 -4.18553949 -0.60007735 0 0 Z " transform="translate(671,76)" style="fill: #FDFDFD;"/><path d="M0 0 C19.4265928 0 19.4265928 0 24.6796875 4.41015625 C28.23456712 9.32425455 28.49182145 14.1199042 28.5625 20 C28.58449463 21.13900757 28.58449463 21.13900757 28.60693359 22.30102539 C28.50607645 27.92897544 27.1141898 32.29088835 24 37 C16.40433333 44.22514634 12.00979854 42 0 42 C0 28.14 0 14.28 0 0 Z " transform="translate(487,92)" style="fill: #FDFDFD;"/><path d="M0 0 C1.90458749 -0.05773192 3.80968589 -0.09875349 5.71484375 -0.1328125 C7.30607056 -0.16979248 7.30607056 -0.16979248 8.92944336 -0.20751953 C13.4553952 0.09836097 16.85452826 1.74083651 20 5 C24.42822792 12.1178906 24.05012503 20.55400275 22.49609375 28.61328125 C21.03863953 33.03561377 18.91203952 35.5549753 15 38 C11.88370851 39.03876383 9.6405571 39.13361625 6.375 39.125 C5.39273437 39.12757812 4.41046875 39.13015625 3.3984375 39.1328125 C1 39 1 39 0 38 C-0.08861992 35.1883662 -0.11522355 32.40141745 -0.09765625 29.58984375 C-0.0962413 28.74780899 -0.09482635 27.90577423 -0.09336853 27.03822327 C-0.08775263 24.33794665 -0.07519748 21.63775172 -0.0625 18.9375 C-0.05748705 17.11132932 -0.05292379 15.28515734 -0.04882812 13.45898438 C-0.03777804 8.97262458 -0.02050279 4.48632616 0 0 Z " transform="translate(487,47)" style="fill: #FCFCFC;"/><path d="M0 0 C2 2 2 2 2.2109375 4.7890625 C0.30377646 9.84611531 -3.69435269 11.07459792 -8.375 13.375 C-10.21494776 14.33466921 -12.0522156 15.29949468 -13.88671875 16.26953125 C-14.77278809 16.73568848 -15.65885742 17.2018457 -16.57177734 17.68212891 C-29.37850398 24.63273321 -38.20862953 34.14417444 -44.19921875 47.41015625 C-46 50 -46 50 -49.08203125 50.99609375 C-50.04496094 50.99738281 -51.00789063 50.99867188 -52 51 C-54 49 -54 49 -54.30078125 46.2265625 C-53.21722171 34.60292384 -41.67514447 23.9718146 -33.2578125 16.59765625 C-27.38489152 11.96927392 -21.10612178 8.14643731 -14.625 4.4375 C-13.86372803 3.99519043 -13.10245605 3.55288086 -12.31811523 3.09716797 C-8.10541714 0.76693668 -4.95098737 -0.77031979 0 0 Z " transform="translate(108,131)" style="fill: #18767A;"/><path d="M0 0 C3.95267657 3.33884915 4.86883847 5.39466421 5.375 10.625 C5.23698086 14.98478095 3.96886037 17.47664113 1 20.75 C-4.92024935 24.16552847 -10.06513332 24.66508527 -16.6875 23.125 C-19.95454822 21.18243079 -22.29107887 19.1331081 -24 15.75 C-24.96545783 11.37662012 -25.01200919 7.55274306 -22.78515625 3.5859375 C-17.32511468 -3.16617497 -7.47674184 -5.10989065 0 0 Z " transform="translate(128,67.25)" style="fill: #167579;"/><path d="M0 0 C5.5 3 5.5 3 7 6 C7.55512815 10.63213493 7.6364242 13.98172127 5.125 18 C1.44993357 21.45888605 -1.61085733 21.46295252 -6.515625 21.40625 C-9 21 -9 21 -12.0625 18.4375 C-14.19814769 14.64844765 -15.07770956 12.35173542 -15 8 C-11.46572901 1.31012991 -7.57437482 -1.20046695 0 0 Z " transform="translate(372,34)" style="fill: #363636;"/><path d="M0 0 C5.61 0 11.22 0 17 0 C17.33 0.66 17.66 1.32 18 2 C12.76655404 3.74448199 7.12042565 3.67853621 1.875 2 C1.25625 1.67 0.6375 1.34 0 1 C0 0.67 0 0.34 0 0 Z " transform="translate(108,90)" style="fill: #ADCBCD;"/></svg>